<svg xmlns="http://www.w3.org/2000/svg" viewBox="0 0 500 500">
  <g fill="#7c3aed">
    <path d="M500,0c-12.48,35.24-24.98,70.49-37.47,105.72-.98,2.77-1.96,5.53-2.94,8.3-16.74-33.79-33.49-67.58-50.23-101.37-.07-.13-.13-.26-.2-.39,30.28-4.08,60.56-8.18,90.84-12.27Z"/>
    <path d="M458.64,144.3h0c-5.87,13.3-12.19,26.92-18.99,40.82-8.69,17.78-17.53,34.67-26.37,50.66l-17.78-44.34c-1.61-3.81-3.23-7.62-4.83-11.43.07-.04.13-.08.2-.12,4.39-2.72,12.5-8.59,18.3-19.06,1.44-2.61,10.83-20.26,3.88-41.16-6.04-18.18-21.73-30.77-38.77-34.37-4.14-.88-23.19-4.91-39.23,7.77-11.61,9.17-14.91,21.76-15.84,26.24l-56.01-30.44c39.18-22.43,84.43-48.01,123.56-70.41l71.9,125.83Z"/>
    <path d="M392.67,244.89c-9.35,14.01-18.69,28.01-28.03,42.02l-136.73-127.32,25.83-50.22,54.12,29.41c1.97,6.77,6.19,17.36,15.47,27.17,3.06,3.24,9.66,9.53,19.94,14.35,10.3,4.82,19.76,6.02,26.01,6.24l23.4,58.36Z"/>
    <path d="M467.24,274.43c-15.02,51.34-30.02,102.7-45.04,154.05-31.46,10.78-62.94,21.55-94.4,32.33-11.46,6.54-22.91,13.07-34.35,19.6-11.45,6.53-22.91,13.06-34.35,19.59,1.85-9.9,3.72-19.8,5.57-29.7,1.85-9.9,3.72-19.8,5.57-29.71-4.38-15.24-8.75-30.49-13.12-45.74l-4.35-126.11-86.42-69.14,10.8-68.33s35-14.49,50.34-20.13l-27.42,53.31,154.08,143.48c-3.84,10.15-7.67,20.3-11.49,30.45-8.39,9.8-16.79,19.59-25.18,29.38,49.92-31.11,99.83-62.23,149.75-93.34Z"/>
    <path d="M234.5,392.43c-11.69,3.21-23.38,6.43-35.07,9.64l-71.1-64.04c-.17-30.18-.33-60.35-.5-90.53-11.7-4.89-23.39-9.78-35.09-14.68-16.08-1.22-32.17-2.44-48.25-3.66L0,237.34c10.2-18.57,20.39-37.14,30.58-55.71,7.9-24.07,15.8-48.13,23.69-72.19,47.18-16.49,94.37-32.99,141.56-49.47-12.97,19.42-39.48,58.69-39.48,58.69l-14.29,90.35,88.56,70.85,3.88,112.56Z"/>
  </g>
  <g fill="#f97316">
    <path d="M188.77,498.08c-6.85-5.62-16.3-14.8-23.52-28.37-11.28-21.19-7.99-35.98-18.55-41.04-9.27-4.44-24.68.79-31.49,12.31-7.49,12.7-.59,26.28,0,27.39,5.71,10.66,17.86,17.01,31.09,16.12-15.44,2.75-30.87,5.49-46.3,8.23-15.62-8.43-31.25-16.87-46.88-25.31-17.71,10.86-35.41,21.73-53.12,32.6,5.51-16.84,11.01-33.68,16.52-50.53.4-15.8.8-31.61,1.2-47.41,3.28-2.34,12.95-9.88,14.72-21.97,2.39-16.3-10.47-34.84-32.45-41.7,36.7,4.52,73.41,9.04,110.11,13.55l72.07,64.91c2.19,27.07,4.39,54.15,6.58,81.22Z"/>
  </g>
</svg>
