<?xml version="1.0" encoding="UTF-8"?>
<svg id="Layer_2" data-name="Layer 2" xmlns="http://www.w3.org/2000/svg" viewBox="0 0 779 779">
  <defs>
    <style>
      .cls-1 {
        fill: #fff;
      }
    </style>
  </defs>
  <g id="Layer_1-2" data-name="Layer 1">
    <g>
      <g>
        <path class="cls-1" d="M418.47,764.87c-11.43-13.03-15.71-31.29-10.68-48.17,3.74-12.57,12.87-21.6,23.87-27.14,16.14-8.12,24.98-5.22,41.01,1.36,7.12,2.92,13.9,6.15,21.57,7.26,19.89,2.88,38.45-8.23,46.3-26.97l10.32-24.65c5.81-13.89,17.23-22.6,31.02-26.37,5.87-1.61,11.44-3.38,17.01-5.7,17.53-7.31,21.23-25.47,20.12-43.66-.87-14.24-.09-27.94,9.21-39.09,2.84-3.41,5.74-6.49,8.97-9.67,8.6-8.48,14.44-19.94,14.07-32.71-.55-19.44-19.06-32.18-15.67-59.77,1.73-14.06,12.3-26.4,13.5-39.47.84-9.12-2.14-17.32-8.58-23.23l-8.99-8.25c-8.36-7.67-13.76-18.03-14.69-29.82l-1.87-23.7c-1.1-13.94-8.3-27.09-20.85-33.09l-17.24-8.25c-13.83-6.62-23.28-20.02-25.03-36.07-1.57-14.44,3.22-28.25,12.64-37.92,9.75-10.02,23.01-14.23,36.68-12.14,18.95,2.89,32.9,18.31,35.47,38.31l2.97,23.12c1.89,14.68,10.78,26.44,23.02,33.41l17.78,10.13c13.05,7.44,21.97,20.67,23.25,36.42,1.9,23.36-19.81,45.81.16,73.58l11.61,16.14c6.16,8.57,9.68,18.94,8.66,29.63-.97,10.11-4.31,18.9-9.93,26.92l-8.82,12.59c-12.57,17.94-11.41,34.73-4.8,55,5.94,18.23,9.99,33.41.67,51.54-4.07,7.91-9.39,14.58-16.84,19.16l-18.04,11.1c-9.75,6-16.9,14.79-20.78,26.08-8.18,23.79-1.16,49.78-27.91,67.92-7,4.75-14.4,8.38-22.89,8.55l-27.12.52c-23.61.45-56.42,16.05-74.38,35-5.62,5.93-10.85,11.99-17.43,16.82-17.85,13.1-41.44,13.39-57.35-4.73Z"/>
        <path class="cls-1" d="M311.24,579.41c15.14,22.96,7.08,55.28-17.53,67.63-20.57,10.32-45.13,4.4-57.67-17.01-21.94-37.48,17.31-60.56-6.02-98.18-6.45-10.4-14.57-18.8-18.44-30.38-5.92-17.71-1.76-36.17,9.17-50.54,5.35-7.04,9.64-14.35,12.86-22.62,3.81-9.76,3.54-19.91-.12-29.6l-5.73-15.14c-7.79-20.59-3.26-45.03,14.13-59.02l17.97-14.46c11.11-8.94,18.69-21.56,18.94-36.52l.52-31.22c.25-14.96,8.27-28.4,19.92-36.6,15.69-11.04,37.5-9.29,50.8-28.55,7.81-11.3,11.03-23.07,17.74-35.89,7.49-14.29,20.88-23.62,36.38-25.26,22.78-2.41,43.79,14.23,48.19,37.96,2.56,13.8-2.46,27.76-10.92,38.24-6.45,7.99-15.17,13.04-24.99,15.02l-15.7,3.17c-8.29,1.68-16.1,5.03-21.85,11.6-4,4.57-6.64,10.23-7.57,16.39l-2.05,13.6c-4.7,31.21-27.62,34.34-44.36,49.15-11.78,10.43-14.79,26.58-12.99,42.22,1.94,16.87,3.47,31.48-7.08,45.78l-11.4,15.46c-8.7,11.8-10.87,26.86-6.09,41.05,2.18,6.47,4.93,12.46,7.72,18.67,6.28,13.97,6.23,28.64-.06,42.65-3.15,7.02-6.17,13.92-8.23,21.36-6.47,23.31,13.68,34.68,24.46,51.02Z"/>
        <ellipse class="cls-1" cx="339.93" cy="704.49" rx="43.8" ry="46.29"/>
      </g>
      <g>
        <ellipse class="cls-1" cx="172.27" cy="103.75" rx="43.09" ry="45.54"/>
        <g>
          <ellipse class="cls-1" cx="62.19" cy="304.39" rx="43.4" ry="45.87"/>
          <ellipse class="cls-1" cx="43.38" cy="424.45" rx="43.38" ry="45.85"/>
          <ellipse class="cls-1" cx="104.97" cy="193.21" rx="43.26" ry="45.72"/>
        </g>
      </g>
      <g>
        <ellipse class="cls-1" cx="513.29" cy="107.83" rx="43.52" ry="46"/>
        <ellipse class="cls-1" cx="622.09" cy="93.79" rx="43.4" ry="45.87"/>
        <ellipse class="cls-1" cx="735.7" cy="115.99" rx="43.3" ry="45.76"/>
        <ellipse class="cls-1" cx="275.61" cy="53.53" rx="43.05" ry="45.5"/>
        <ellipse class="cls-1" cx="395.73" cy="45.27" rx="42.83" ry="45.27"/>
      </g>
    </g>
  </g>
</svg>